<mxfile host="app.diagrams.net" modified="2024-03-08T18:33:45.286Z" agent="Mozilla/5.0 (Macintosh; Intel Mac OS X 10_15_7) AppleWebKit/537.36 (KHTML, like Gecko) Chrome/122.0.0.0 Safari/537.36" etag="Jl-jYl8Vp01Wn_13xWRV" version="24.0.2" type="device">
  <diagram name="Page-1" id="pYSsJZCkRuSog8M9xGwz">
    <mxGraphModel dx="1627" dy="860" grid="1" gridSize="10" guides="1" tooltips="1" connect="1" arrows="1" fold="1" page="1" pageScale="1" pageWidth="827" pageHeight="1169" math="0" shadow="0">
      <root>
        <mxCell id="0" />
        <mxCell id="1" parent="0" />
        <mxCell id="kk4V51rM7Qci03EMUWR9-1" value="" style="rounded=0;whiteSpace=wrap;html=1;" vertex="1" parent="1">
          <mxGeometry x="50" y="70" width="1000" height="1200" as="geometry" />
        </mxCell>
        <mxCell id="kk4V51rM7Qci03EMUWR9-35" value="" style="rounded=0;whiteSpace=wrap;html=1;" vertex="1" parent="1">
          <mxGeometry x="70" y="450" width="960" height="370" as="geometry" />
        </mxCell>
        <mxCell id="kk4V51rM7Qci03EMUWR9-3" value="&lt;font style=&quot;font-size: 21px;&quot;&gt;DC Build Out&lt;/font&gt;" style="text;html=1;align=center;verticalAlign=middle;whiteSpace=wrap;rounded=0;" vertex="1" parent="1">
          <mxGeometry x="60" y="80" width="140" height="30" as="geometry" />
        </mxCell>
        <mxCell id="kk4V51rM7Qci03EMUWR9-5" value="" style="group" vertex="1" connectable="0" parent="1">
          <mxGeometry x="70" y="510" width="430" height="250" as="geometry" />
        </mxCell>
        <mxCell id="kk4V51rM7Qci03EMUWR9-2" value="" style="rounded=0;whiteSpace=wrap;html=1;movable=1;resizable=1;rotatable=1;deletable=1;editable=1;locked=0;connectable=1;" vertex="1" parent="kk4V51rM7Qci03EMUWR9-5">
          <mxGeometry x="20" width="430" height="250" as="geometry" />
        </mxCell>
        <mxCell id="kk4V51rM7Qci03EMUWR9-4" value="&lt;font style=&quot;font-size: 16px;&quot;&gt;Iaas Scipts&lt;/font&gt;" style="text;html=1;align=center;verticalAlign=middle;whiteSpace=wrap;rounded=0;movable=1;resizable=1;rotatable=1;deletable=1;editable=1;locked=0;connectable=1;" vertex="1" parent="kk4V51rM7Qci03EMUWR9-5">
          <mxGeometry x="20" width="114.66666666666669" height="30" as="geometry" />
        </mxCell>
        <mxCell id="kk4V51rM7Qci03EMUWR9-13" value="" style="group" vertex="1" connectable="0" parent="1">
          <mxGeometry x="580" y="510" width="400" height="250" as="geometry" />
        </mxCell>
        <mxCell id="kk4V51rM7Qci03EMUWR9-11" value="" style="rounded=0;whiteSpace=wrap;html=1;" vertex="1" parent="kk4V51rM7Qci03EMUWR9-13">
          <mxGeometry width="400" height="250" as="geometry" />
        </mxCell>
        <mxCell id="kk4V51rM7Qci03EMUWR9-12" value="&lt;font style=&quot;font-size: 16px;&quot;&gt;Landscape codebase&lt;/font&gt;" style="text;html=1;align=center;verticalAlign=middle;whiteSpace=wrap;rounded=0;" vertex="1" parent="kk4V51rM7Qci03EMUWR9-13">
          <mxGeometry y="1" width="200" height="29" as="geometry" />
        </mxCell>
        <mxCell id="kk4V51rM7Qci03EMUWR9-51" style="edgeStyle=orthogonalEdgeStyle;rounded=0;orthogonalLoop=1;jettySize=auto;html=1;exitX=0.5;exitY=1;exitDx=0;exitDy=0;entryX=0.5;entryY=0;entryDx=0;entryDy=0;" edge="1" parent="1" source="kk4V51rM7Qci03EMUWR9-22" target="kk4V51rM7Qci03EMUWR9-35">
          <mxGeometry relative="1" as="geometry" />
        </mxCell>
        <mxCell id="kk4V51rM7Qci03EMUWR9-56" style="edgeStyle=orthogonalEdgeStyle;rounded=0;orthogonalLoop=1;jettySize=auto;html=1;" edge="1" parent="1" source="kk4V51rM7Qci03EMUWR9-22" target="kk4V51rM7Qci03EMUWR9-55">
          <mxGeometry relative="1" as="geometry" />
        </mxCell>
        <mxCell id="kk4V51rM7Qci03EMUWR9-61" style="edgeStyle=orthogonalEdgeStyle;rounded=0;orthogonalLoop=1;jettySize=auto;html=1;entryX=1;entryY=0.5;entryDx=0;entryDy=0;" edge="1" parent="1" source="kk4V51rM7Qci03EMUWR9-22" target="kk4V51rM7Qci03EMUWR9-58">
          <mxGeometry relative="1" as="geometry" />
        </mxCell>
        <mxCell id="kk4V51rM7Qci03EMUWR9-22" value="Jenkins Pipeline" style="rhombus;whiteSpace=wrap;html=1;" vertex="1" parent="1">
          <mxGeometry x="510" y="290" width="80" height="80" as="geometry" />
        </mxCell>
        <mxCell id="kk4V51rM7Qci03EMUWR9-30" value="terraform applying on change in iaas folder" style="text;html=1;align=center;verticalAlign=middle;whiteSpace=wrap;rounded=0;" vertex="1" parent="1">
          <mxGeometry x="340" y="220" width="120" height="30" as="geometry" />
        </mxCell>
        <mxCell id="kk4V51rM7Qci03EMUWR9-31" value="Actor" style="shape=umlActor;verticalLabelPosition=bottom;verticalAlign=top;html=1;outlineConnect=0;" vertex="1" parent="1">
          <mxGeometry x="560" y="980" width="30" height="60" as="geometry" />
        </mxCell>
        <mxCell id="kk4V51rM7Qci03EMUWR9-32" value="" style="endArrow=classic;html=1;rounded=0;entryX=0.5;entryY=1;entryDx=0;entryDy=0;exitX=0.5;exitY=0;exitDx=0;exitDy=0;exitPerimeter=0;" edge="1" parent="1" source="kk4V51rM7Qci03EMUWR9-31">
          <mxGeometry width="50" height="50" relative="1" as="geometry">
            <mxPoint x="485" y="960" as="sourcePoint" />
            <mxPoint x="575" y="820" as="targetPoint" />
          </mxGeometry>
        </mxCell>
        <mxCell id="kk4V51rM7Qci03EMUWR9-33" value="Push commit" style="text;html=1;align=center;verticalAlign=middle;whiteSpace=wrap;rounded=0;" vertex="1" parent="1">
          <mxGeometry x="575" y="890" width="60" height="30" as="geometry" />
        </mxCell>
        <mxCell id="kk4V51rM7Qci03EMUWR9-39" value="Polling" style="text;html=1;align=center;verticalAlign=middle;whiteSpace=wrap;rounded=0;" vertex="1" parent="1">
          <mxGeometry x="450" y="380" width="60" height="30" as="geometry" />
        </mxCell>
        <mxCell id="kk4V51rM7Qci03EMUWR9-47" value="" style="group" vertex="1" connectable="0" parent="1">
          <mxGeometry x="490" y="170" width="120" height="80" as="geometry" />
        </mxCell>
        <mxCell id="kk4V51rM7Qci03EMUWR9-41" value="" style="ellipse;shape=cloud;whiteSpace=wrap;html=1;" vertex="1" parent="kk4V51rM7Qci03EMUWR9-47">
          <mxGeometry width="120" height="80" as="geometry" />
        </mxCell>
        <mxCell id="kk4V51rM7Qci03EMUWR9-44" value="GCP" style="text;html=1;align=center;verticalAlign=middle;whiteSpace=wrap;rounded=0;" vertex="1" parent="kk4V51rM7Qci03EMUWR9-47">
          <mxGeometry x="30" y="25" width="60" height="30" as="geometry" />
        </mxCell>
        <mxCell id="kk4V51rM7Qci03EMUWR9-48" value="Redeploy with the creating a new docker image" style="text;html=1;align=center;verticalAlign=middle;whiteSpace=wrap;rounded=0;" vertex="1" parent="1">
          <mxGeometry x="640" y="220" width="150" height="30" as="geometry" />
        </mxCell>
        <mxCell id="kk4V51rM7Qci03EMUWR9-53" value="&lt;font style=&quot;font-size: 16px;&quot;&gt;Build Out Repo&lt;/font&gt;" style="text;html=1;align=center;verticalAlign=middle;whiteSpace=wrap;rounded=0;" vertex="1" parent="1">
          <mxGeometry x="70" y="450" width="130" height="30" as="geometry" />
        </mxCell>
        <mxCell id="kk4V51rM7Qci03EMUWR9-55" value="Is Landscape change?" style="rhombus;whiteSpace=wrap;html=1;" vertex="1" parent="1">
          <mxGeometry x="650" y="280" width="110" height="100" as="geometry" />
        </mxCell>
        <mxCell id="kk4V51rM7Qci03EMUWR9-57" style="edgeStyle=orthogonalEdgeStyle;rounded=0;orthogonalLoop=1;jettySize=auto;html=1;exitX=0.5;exitY=0;exitDx=0;exitDy=0;entryX=0.96;entryY=0.7;entryDx=0;entryDy=0;entryPerimeter=0;" edge="1" parent="1" source="kk4V51rM7Qci03EMUWR9-55" target="kk4V51rM7Qci03EMUWR9-41">
          <mxGeometry relative="1" as="geometry">
            <Array as="points">
              <mxPoint x="705" y="260" />
              <mxPoint x="630" y="260" />
              <mxPoint x="630" y="226" />
            </Array>
          </mxGeometry>
        </mxCell>
        <mxCell id="kk4V51rM7Qci03EMUWR9-58" value="Is Iaas change?" style="rhombus;whiteSpace=wrap;html=1;" vertex="1" parent="1">
          <mxGeometry x="340" y="280" width="110" height="100" as="geometry" />
        </mxCell>
        <mxCell id="kk4V51rM7Qci03EMUWR9-60" style="edgeStyle=orthogonalEdgeStyle;rounded=0;orthogonalLoop=1;jettySize=auto;html=1;exitX=0.5;exitY=0;exitDx=0;exitDy=0;entryX=0.16;entryY=0.55;entryDx=0;entryDy=0;entryPerimeter=0;" edge="1" parent="1" source="kk4V51rM7Qci03EMUWR9-58" target="kk4V51rM7Qci03EMUWR9-41">
          <mxGeometry relative="1" as="geometry">
            <Array as="points">
              <mxPoint x="395" y="260" />
              <mxPoint x="470" y="260" />
              <mxPoint x="470" y="214" />
            </Array>
          </mxGeometry>
        </mxCell>
      </root>
    </mxGraphModel>
  </diagram>
</mxfile>
